<svg xmlns="http://www.w3.org/2000/svg" width="50.497" height="37.82" viewBox="0 0 50.497 37.82">
  <g id="list" transform="translate(0 -64.267)">
    <path id="Path_25328" data-name="Path 25328"
      d="M45.85,64.267H4.647a4.649,4.649,0,0,0,0,9.3h41.2a4.649,4.649,0,0,0,0-9.3Z" fill="#000" />
    <path id="Path_25329" data-name="Path 25329"
      d="M45.85,208.867H4.647a4.649,4.649,0,0,0,0,9.3h41.2a4.649,4.649,0,0,0,0-9.3Z" transform="translate(0 -130.339)"
      fill="#000" />
    <path id="Path_25330" data-name="Path 25330"
      d="M45.85,353.467H4.647a4.649,4.649,0,0,0,0,9.3h41.2a4.649,4.649,0,0,0,0-9.3Z" transform="translate(0 -260.677)"
      fill="#000" />
  </g>
</svg>